<?xml version="1.0" encoding="utf-8"?>
<svg width="423" height="113" viewBox="0 0 423 113" fill="none" xmlns="http://www.w3.org/2000/svg">
  <path fill-rule="evenodd" clip-rule="evenodd" d="M0.878906 12.4389L8.2739 9.2199C35.7648 -2.74672 66.993 -2.74672 94.4839 9.2199L101.879 12.4389V62.1816C101.879 90.072 79.2693 112.682 51.3789 112.682C23.4885 112.682 0.878906 90.072 0.878906 62.1816V12.4389ZM16.8789 22.9586V44.727C18.5852 44.314 20.2608 43.7684 21.8901 43.0935C26.0152 41.3849 29.7633 38.8804 32.9205 35.7232C36.0777 32.566 38.5821 28.8179 40.2908 24.6928C41.3587 22.1148 42.1027 19.421 42.5105 16.6732C33.7831 17.5181 25.148 19.6133 16.8789 22.9586ZM16.8818 62.6369C18.5871 63.0499 20.2617 63.5952 21.8901 64.2697C26.0152 65.9784 29.7633 68.4828 32.9205 71.64C36.0777 74.7972 38.5821 78.5453 40.2908 82.6704C41.9925 86.7785 42.8717 91.1804 42.8789 95.6266C28.0763 91.8761 17.0877 78.5566 16.8818 62.6369ZM50.8789 68.5523C48.9656 65.5902 46.7397 62.8317 44.2342 60.3263C41.7288 57.8208 38.9703 55.5949 36.0082 53.6816C38.9703 51.7683 41.7288 49.5424 44.2342 47.0369C46.7397 44.5315 48.9656 41.773 50.8789 38.8109C52.7922 41.773 55.0181 44.5315 57.5236 47.0369C60.029 49.5424 62.7875 51.7683 65.7496 53.6816C62.7875 55.5949 60.029 57.8208 57.5236 60.3263C55.0181 62.8317 52.7922 65.5902 50.8789 68.5523ZM58.8789 95.8641C74.255 92.4555 85.7719 78.7871 85.8782 62.4102C83.8264 62.8419 81.8141 63.4635 79.8677 64.2697C75.7426 65.9784 71.9945 68.4828 68.8373 71.64C65.6801 74.7972 63.1757 78.5453 61.467 82.6704C59.7583 86.7954 58.8789 91.2167 58.8789 95.6816V95.8641ZM79.8677 43.0935C81.8143 43.8998 83.8269 44.5215 85.8789 44.9532V22.9586C77.2898 19.4838 68.3059 17.3578 59.2337 16.5807C59.6385 19.3606 60.3871 22.0859 61.467 24.6928C63.1757 28.8179 65.6801 32.566 68.8373 35.7232C71.9945 38.8804 75.7426 41.3849 79.8677 43.0935Z" fill="#0369a1"/>
  <path fill-rule="evenodd" clip-rule="evenodd" d="M222.027 102.758C219.627 102.758 217.467 102.182 215.547 101.03C213.627 99.8456 212.107 98.2456 210.987 96.2296C209.899 94.1816 209.355 91.8776 209.355 89.3176C209.355 86.7256 209.899 84.4216 210.987 82.4056C212.107 80.3896 213.611 78.8056 215.499 77.6536C217.419 76.4696 219.595 75.8776 222.027 75.8776C224.235 75.8776 226.203 76.3576 227.931 77.3176C229.346 78.1035 230.514 79.1146 231.435 80.3508V65.8456H235.035V102.182H231.435V97.9892C230.573 99.3521 229.421 100.446 227.979 101.27C226.219 102.262 224.235 102.758 222.027 102.758ZM222.219 99.1576C223.947 99.1576 225.499 98.7256 226.875 97.8616C228.283 96.9976 229.387 95.8296 230.187 94.3576C231.019 92.8536 231.435 91.1736 231.435 89.3176C231.435 87.4616 231.019 85.7976 230.187 84.3256C229.387 82.8216 228.283 81.6376 226.875 80.7736C225.499 79.9096 223.947 79.4776 222.219 79.4776C220.523 79.4776 218.987 79.9096 217.611 80.7736C216.235 81.6376 215.147 82.8056 214.347 84.2776C213.579 85.7496 213.195 87.4296 213.195 89.3176C213.195 91.1736 213.579 92.8536 214.347 94.3576C215.147 95.8296 216.219 96.9976 217.563 97.8616C218.939 98.7256 220.491 99.1576 222.219 99.1576Z" fill="#0369a1"/>
  <path fill-rule="evenodd" clip-rule="evenodd" d="M246.171 101.03C248.123 102.182 250.299 102.758 252.699 102.758C254.459 102.758 256.059 102.47 257.499 101.894C258.971 101.286 260.235 100.502 261.291 99.5416C262.347 98.5496 263.131 97.4776 263.643 96.3256L260.571 94.6936C259.771 96.0376 258.731 97.1576 257.451 98.0536C256.171 98.9496 254.587 99.3976 252.699 99.3976C251.067 99.3976 249.531 98.9816 248.091 98.1496C246.683 97.3176 245.563 96.1496 244.731 94.6456C244.085 93.4047 243.752 91.9967 243.732 90.4216H263.979C264.043 90.0056 264.091 89.6056 264.123 89.2216C264.155 88.8056 264.171 88.4376 264.171 88.1176C264.171 86.5816 263.899 85.0936 263.355 83.6536C262.811 82.1816 262.027 80.8696 261.003 79.7176C259.979 78.5336 258.731 77.6056 257.259 76.9336C255.819 76.2296 254.171 75.8776 252.315 75.8776C249.979 75.8776 247.867 76.4536 245.979 77.6056C244.123 78.7576 242.651 80.3416 241.563 82.3576C240.475 84.3416 239.931 86.6296 239.931 89.2216C239.931 91.8136 240.491 94.1336 241.611 96.1816C242.731 98.2296 244.251 99.8456 246.171 101.03ZM243.789 87.0616C243.908 85.9268 244.206 84.9028 244.683 83.9896C245.451 82.4856 246.507 81.3176 247.851 80.4856C249.227 79.6536 250.715 79.2376 252.315 79.2376C253.915 79.2376 255.355 79.6536 256.635 80.4856C257.915 81.2856 258.891 82.3896 259.563 83.7976C260.069 84.7865 260.318 85.8745 260.312 87.0616H243.789Z" fill="#0369a1"/>
  <path d="M269.078 76.4536H272.678V79.5877C273.334 78.5751 274.182 77.7544 275.222 77.1256C276.63 76.2936 278.166 75.8776 279.83 75.8776C281.814 75.8776 283.606 76.4376 285.206 77.5576C286.443 78.4234 287.403 79.4899 288.085 80.7572C288.744 79.3633 289.688 78.2648 290.918 77.4616C292.518 76.4056 294.278 75.8776 296.198 75.8776C297.926 75.8776 299.51 76.2936 300.95 77.1256C302.422 77.9576 303.59 79.1096 304.454 80.5816C305.35 82.0216 305.798 83.6536 305.798 85.4776V102.182H302.198V86.8696C302.198 85.3016 301.91 83.9736 301.334 82.8856C300.79 81.7976 300.038 80.9656 299.078 80.3896C298.118 79.7816 297.014 79.4776 295.766 79.4776C294.55 79.4776 293.446 79.7816 292.454 80.3896C291.462 80.9656 290.678 81.8136 290.102 82.9336C289.526 84.0216 289.238 85.3336 289.238 86.8696V102.182H285.638V86.8696C285.638 85.3016 285.35 83.9736 284.774 82.8856C284.23 81.7976 283.478 80.9656 282.518 80.3896C281.558 79.7816 280.454 79.4776 279.206 79.4776C277.958 79.4776 276.838 79.7816 275.846 80.3896C274.886 80.9656 274.118 81.8136 273.542 82.9336C272.966 84.0216 272.678 85.3336 272.678 86.8696V102.182H269.078V76.4536Z" fill="#0369a1"/>
  <path d="M311.291 112.742C310.779 112.742 310.251 112.694 309.707 112.598C309.195 112.534 308.683 112.406 308.171 112.214V108.854C308.491 108.886 308.891 108.934 309.371 108.998C309.883 109.094 310.395 109.142 310.907 109.142C312.475 109.142 313.675 108.806 314.507 108.134C315.339 107.494 316.155 106.246 316.955 104.39L317.885 102.201L307.595 76.4536H311.483L319.906 97.6913L328.283 76.4536H332.267L320.507 105.446C319.995 106.694 319.339 107.878 318.539 108.998C317.771 110.118 316.795 111.014 315.611 111.686C314.427 112.39 312.987 112.742 311.291 112.742Z" fill="#0369a1"/>
  <path fill-rule="evenodd" clip-rule="evenodd" d="M187.454 101.846C188.734 102.454 190.19 102.758 191.823 102.758C193.327 102.758 194.703 102.534 195.95 102.086C197.23 101.606 198.334 100.982 199.262 100.214C199.905 99.678 200.433 99.1066 200.846 98.4992V102.182H204.447V84.5176C204.447 82.8216 204.031 81.3336 203.198 80.0536C202.398 78.7416 201.262 77.7176 199.791 76.9816C198.35 76.2456 196.687 75.8776 194.798 75.8776C193.359 75.8776 191.966 76.1496 190.622 76.6936C189.278 77.2056 188.078 77.9096 187.022 78.8056C185.999 79.7016 185.246 80.6936 184.766 81.7816L188.031 83.5576C188.606 82.3096 189.486 81.3016 190.671 80.5336C191.854 79.7336 193.23 79.3336 194.798 79.3336C196.59 79.3336 198.047 79.8136 199.167 80.7736C200.286 81.7336 200.846 82.9816 200.846 84.5176V85.8456L191.534 87.3976C189.646 87.7176 188.094 88.2616 186.879 89.0296C185.662 89.7976 184.766 90.7416 184.19 91.8616C183.615 92.9496 183.327 94.1656 183.327 95.5096C183.327 96.9176 183.694 98.1656 184.43 99.2536C185.167 100.342 186.174 101.206 187.454 101.846ZM200.846 89.1096V91.0456C200.846 92.6136 200.479 94.0376 199.742 95.3176C199.006 96.5976 197.982 97.6216 196.671 98.3896C195.359 99.1256 193.823 99.4936 192.062 99.4936C190.622 99.4936 189.438 99.0936 188.51 98.2936C187.615 97.4936 187.167 96.5176 187.167 95.3656C187.167 94.1816 187.567 93.1576 188.366 92.2936C189.198 91.4296 190.542 90.8376 192.398 90.5176L200.846 89.1096Z" fill="#0369a1"/>
  <path d="M169.27 102.758C166.742 102.758 164.518 102.166 162.598 100.982C160.678 99.7976 159.174 98.1976 158.086 96.1816C156.998 94.1336 156.454 91.8296 156.454 89.2696C156.454 86.7096 156.998 84.4216 158.086 82.4056C159.174 80.3896 160.678 78.8056 162.598 77.6536C164.518 76.4696 166.742 75.8776 169.27 75.8776C170.87 75.8776 172.374 76.1656 173.782 76.7416C175.19 77.3176 176.438 78.1016 177.526 79.0936C178.614 80.0536 179.43 81.1736 179.974 82.4536L176.71 84.1336C176.07 82.7576 175.094 81.6376 173.782 80.7736C172.47 79.9096 170.966 79.4776 169.27 79.4776C167.574 79.4776 166.038 79.9096 164.662 80.7736C163.318 81.6056 162.246 82.7736 161.446 84.2776C160.678 85.7496 160.294 87.4296 160.294 89.3176C160.294 91.1736 160.678 92.8536 161.446 94.3576C162.246 95.8296 163.318 96.9976 164.662 97.8616C166.038 98.7256 167.574 99.1576 169.27 99.1576C170.966 99.1576 172.454 98.7256 173.734 97.8616C175.046 96.9976 176.038 95.8456 176.71 94.4056L179.974 96.1816C179.43 97.4296 178.614 98.5496 177.526 99.5416C176.438 100.534 175.19 101.318 173.782 101.894C172.374 102.47 170.87 102.758 169.27 102.758Z" fill="#0369a1"/>
  <path fill-rule="evenodd" clip-rule="evenodd" d="M138.463 66.4216L125.407 102.182H129.439L132.559 93.4456H148.543L151.615 102.182H155.647L142.591 66.4216H138.463ZM147.199 89.8456H133.807L140.525 70.929L147.199 89.8456Z" fill="#0369a1"/>
  <text style="fill: rgb(3, 105, 161); font-family: Arial; font-size: 58px; font-weight: 700; white-space: pre;" x="125.454" y="56.976">Pitesti</text>
</svg>